<svg xmlns="http://www.w3.org/2000/svg" xmlns:xlink="http://www.w3.org/1999/xlink" version="1.1" width="20" height="22" viewBox="0 0 20 22">
<path transform="matrix(1,0,0,-1,0,22)" d="M5.706786 14.293 3.413786 12H14.999786C15.265003 12 15.519358 11.894643 15.706894 11.707107 15.89443 11.51957 15.999786 11.265217 15.999786 11 15.999786 10.734783 15.89443 10.48043 15.706894 10.292893 15.519358 10.105357 15.265003 10 14.999786 10H3.413786L5.706786 7.707C5.802296 7.614753 5.878479 7.504408 5.930888 7.382404 5.983297 7.260401 6.010883 7.12918 6.012037 6.996401 6.013191 6.863622 5.987889 6.731943 5.937608 6.609047 5.887327 6.486151 5.813074 6.374498 5.719182 6.280605 5.625289 6.186712 5.513637 6.112458 5.39074 6.062178 5.267844 6.011897 5.136164 5.986595 5.003385 5.987749 4.870606 5.988903 4.739386 6.01649 4.617382 6.068899 4.495378 6.121308 4.385034 6.197489 4.292787 6.292999L.292786 10.293C.105315 10.480528 0 10.734836 0 11 -0 11.265164 .105315 11.519472 .292786 11.707L4.292787 15.707C4.385034 15.802509 4.495378 15.878693 4.617382 15.931101 4.739386 15.983511 4.870606 16.011097 5.003385 16.01225 5.136164 16.013405 5.267844 15.988103 5.39074 15.937822 5.513637 15.887541 5.625289 15.813288 5.719182 15.719395 5.813074 15.625503 5.887327 15.51385 5.937608 15.390954 5.987889 15.268058 6.013191 15.136377 6.012037 15.003599 6.010883 14.870819 5.983297 14.739599 5.930888 14.617596 5.878479 14.495592 5.802296 14.385247 5.706786 14.293ZM18.999787 22H10.999786C10.73457 22 10.480216 21.894644 10.29268 21.707108 10.105144 21.519572 9.999786 21.265217 9.999786 21 9.999786 20.734784 10.105144 20.480429 10.29268 20.292893 10.480216 20.105357 10.73457 20 10.999786 20H17.999787V2H10.999786C10.73457 2 10.480216 1.894644 10.29268 1.707108 10.105144 1.519571 9.999786 1.265217 9.999786 1 9.999786 .734783 10.105144 .480429 10.29268 .292892 10.480216 .105356 10.73457 0 10.999786 0H18.999787C19.265004 0 19.519358 .105356 19.706894 .292892 19.89443 .480429 19.999787 .734783 19.999787 1V21C19.999787 21.265217 19.89443 21.519572 19.706894 21.707108 19.519358 21.894644 19.265004 22 18.999787 22Z" fill="#2fff00"/>
</svg>
