<svg width="23" height="22" viewBox="0 0 23 22" fill="none" xmlns="http://www.w3.org/2000/svg">
<path d="M1.22389 19.3906L9.61456 10.9999L1.22389 2.60928C0.981015 2.35781 0.846622 2.02101 0.84966 1.67141C0.852698 1.32181 0.992923 0.987398 1.24013 0.740187C1.48734 0.492977 1.82176 0.352751 2.17136 0.349713C2.52095 0.346675 2.85776 0.481068 3.10923 0.723946L11.4999 9.11461L19.8906 0.723946C20.0136 0.596599 20.1607 0.495022 20.3234 0.425144C20.486 0.355265 20.661 0.318483 20.838 0.316945C21.0151 0.315406 21.1906 0.349142 21.3545 0.416183C21.5184 0.483224 21.6672 0.582228 21.7924 0.707419C21.9176 0.832609 22.0166 0.981478 22.0837 1.14534C22.1507 1.3092 22.1844 1.48477 22.1829 1.66181C22.1814 1.83885 22.1446 2.01381 22.0747 2.17648C22.0048 2.33916 21.9032 2.48628 21.7759 2.60928L13.3852 10.9999L21.7759 19.3906C21.9032 19.5136 22.0048 19.6607 22.0747 19.8234C22.1446 19.9861 22.1814 20.161 22.1829 20.3381C22.1844 20.5151 22.1507 20.6907 22.0837 20.8545C22.0166 21.0184 21.9176 21.1673 21.7924 21.2925C21.6672 21.4177 21.5184 21.5167 21.3545 21.5837C21.1906 21.6507 21.0151 21.6845 20.838 21.6829C20.661 21.6814 20.486 21.6446 20.3234 21.5747C20.1607 21.5049 20.0136 21.4033 19.8906 21.2759L11.4999 12.8853L3.10923 21.2759C2.85776 21.5188 2.52095 21.6532 2.17136 21.6502C1.82176 21.6471 1.48734 21.5069 1.24013 21.2597C0.992923 21.0125 0.852698 20.6781 0.84966 20.3285C0.846622 19.9789 0.981015 19.6421 1.22389 19.3906Z" fill="#FF0000"/>
</svg>
