<svg width="20" height="20" viewBox="0 0 20 20" fill="none" xmlns="http://www.w3.org/2000/svg">
<path d="M0 1V19C0 19.2652 0.105357 19.5196 0.292893 19.7071C0.48043 19.8946 0.734784 20 1 20H19C19.2652 20 19.5196 19.8946 19.7071 19.7071C19.8946 19.5196 20 19.2652 20 19V1C20 0.734784 19.8946 0.48043 19.7071 0.292893C19.5196 0.105357 19.2652 0 19 0H1C0.734784 0 0.48043 0.105357 0.292893 0.292893C0.105357 0.48043 0 0.734784 0 1ZM4.256 18C4.90085 17.0742 5.75993 16.318 6.76007 15.7957C7.7602 15.2735 8.87174 15.0008 10 15.0008C11.1283 15.0008 12.2398 15.2735 13.2399 15.7957C14.2401 16.318 15.0991 17.0742 15.744 18H4.256ZM2 2H18V17.937C17.2556 16.453 16.1132 15.2054 14.7004 14.3335C13.2876 13.4616 11.6602 12.9998 10 12.9998C8.33982 12.9998 6.71236 13.4616 5.29957 14.3335C3.88678 15.2054 2.74435 16.453 2 17.937V2ZM10 12C10.7911 12 11.5645 11.7654 12.2223 11.3259C12.8801 10.8864 13.3928 10.2616 13.6955 9.53073C13.9983 8.79983 14.0775 7.99556 13.9231 7.21964C13.7688 6.44371 13.3878 5.73098 12.8284 5.17157C12.269 4.61216 11.5563 4.2312 10.7804 4.07686C10.0044 3.92252 9.20017 4.00173 8.46927 4.30448C7.73836 4.60723 7.11365 5.11992 6.67412 5.77772C6.2346 6.43552 6 7.20887 6 8C6 9.06087 6.42143 10.0783 7.17157 10.8284C7.92172 11.5786 8.93913 12 10 12ZM10 6C10.3956 6 10.7822 6.1173 11.1111 6.33706C11.44 6.55682 11.6964 6.86918 11.8478 7.23463C11.9991 7.60009 12.0387 8.00222 11.9616 8.39018C11.8844 8.77814 11.6939 9.13451 11.4142 9.41421C11.1345 9.69392 10.7781 9.8844 10.3902 9.96157C10.0022 10.0387 9.60009 9.99913 9.23463 9.84776C8.86918 9.69638 8.55682 9.44004 8.33706 9.11114C8.1173 8.78224 8 8.39556 8 8C8 7.46957 8.21071 6.96086 8.58579 6.58579C8.96086 6.21071 9.46957 6 10 6Z" fill="#F3F8F1"/>
</svg>
