<svg width="31" height="24" viewBox="0 0 31 24" fill="none" xmlns="http://www.w3.org/2000/svg">
<path d="M10.9545 23.608C11.1976 23.8518 11.5256 23.9921 11.8698 23.9996C12.214 24.007 12.5478 23.8811 12.8012 23.648L29.7345 8.08268C29.9948 7.84369 30.1495 7.51117 30.1648 7.15817C30.18 6.80517 30.0545 6.46056 29.8159 6.20001L24.5465 0.433345C24.4281 0.303894 24.2854 0.19908 24.1264 0.12491C23.9674 0.0507394 23.7954 0.00867087 23.6201 0.00111521C23.4448 -0.00644045 23.2698 0.0206654 23.105 0.0808789C22.9402 0.141093 22.789 0.23323 22.6599 0.352012L12.1732 9.99201L8.62521 6.43601C8.37017 6.19464 8.03236 6.06013 7.68121 6.06013C7.33006 6.06013 6.99225 6.19464 6.73721 6.43601L1.22255 11.9653C0.9734 12.2153 0.833496 12.5538 0.833496 12.9067C0.833496 13.2596 0.9734 13.5981 1.22255 13.848L10.9545 23.608ZM7.68121 9.26535L11.1892 12.7813C11.4321 13.0249 11.7597 13.1652 12.1036 13.1729C12.4475 13.1806 12.781 13.0551 13.0345 12.8227L23.4799 3.22268L26.9465 7.02134L11.9399 20.8187L4.04921 12.9067L7.68121 9.26535Z" fill="#2FFF00"/>
</svg>
