<svg width="18" height="22" viewBox="0 0 18 22" fill="none" xmlns="http://www.w3.org/2000/svg">
<path d="M15 0H3C2.20435 0 1.44129 0.31607 0.87868 0.87868C0.316071 1.44129 0 2.20435 0 3V21C0 21.2099 0.0660374 21.4144 0.188758 21.5847C0.311478 21.755 0.48466 21.8823 0.683772 21.9487C0.882884 22.0151 1.09783 22.0171 1.29817 21.9545C1.4985 21.8919 1.67407 21.7679 1.8 21.6L3.829 18.9L5.105 21.452C5.18079 21.6039 5.294 21.734 5.43396 21.83C5.57392 21.9261 5.73602 21.9849 5.905 22.001C6.07535 22.0178 6.24713 21.9897 6.40326 21.9195C6.55939 21.8493 6.69444 21.7395 6.795 21.601L9 18.667L11.2 21.6C11.3007 21.7384 11.4358 21.8481 11.5919 21.9182C11.748 21.9884 11.9197 22.0166 12.09 22C12.259 21.9839 12.4211 21.9251 12.561 21.829C12.701 21.733 12.8142 21.6029 12.89 21.451L14.171 18.9L16.2 21.6C16.2931 21.7242 16.4139 21.825 16.5528 21.8944C16.6916 21.9639 16.8448 22 17 22C17.2652 22 17.5196 21.8946 17.7071 21.7071C17.8946 21.5196 18 21.2652 18 21V3C18 2.20435 17.6839 1.44129 17.1213 0.87868C16.5587 0.31607 15.7956 0 15 0ZM16 18L14.8 16.4C14.6993 16.2616 14.5642 16.1519 14.4081 16.0818C14.252 16.0116 14.0803 15.9834 13.91 16C13.741 16.0161 13.5789 16.0749 13.439 16.171C13.299 16.267 13.1858 16.3971 13.11 16.549L11.834 19.101L9.8 16.4C9.70685 16.2758 9.58607 16.175 9.44721 16.1056C9.30836 16.0361 9.15524 16 9 16C8.84476 16 8.69164 16.0361 8.55279 16.1056C8.41393 16.175 8.29315 16.2758 8.2 16.4L6.171 19.105L4.9 16.553C4.82385 16.399 4.70932 16.2672 4.56745 16.1704C4.42558 16.0735 4.26114 16.0148 4.09 16C3.91971 15.9838 3.74814 16.0122 3.59211 16.0823C3.43609 16.1525 3.30097 16.2619 3.2 16.4L2 18V3C2 2.73478 2.10536 2.48043 2.29289 2.29289C2.48043 2.10536 2.73478 2 3 2H15C15.2652 2 15.5196 2.10536 15.7071 2.29289C15.8946 2.48043 16 2.73478 16 3V18ZM14 8C14 8.26522 13.8946 8.51957 13.7071 8.70711C13.5196 8.89464 13.2652 9 13 9H5C4.73478 9 4.48043 8.89464 4.29289 8.70711C4.10536 8.51957 4 8.26522 4 8C4 7.73478 4.10536 7.48043 4.29289 7.29289C4.48043 7.10536 4.73478 7 5 7H13C13.2652 7 13.5196 7.10536 13.7071 7.29289C13.8946 7.48043 14 7.73478 14 8ZM10 12C10 12.2652 9.89464 12.5196 9.70711 12.7071C9.51957 12.8946 9.26522 13 9 13H5C4.73478 13 4.48043 12.8946 4.29289 12.7071C4.10536 12.5196 4 12.2652 4 12C4 11.7348 4.10536 11.4804 4.29289 11.2929C4.48043 11.1054 4.73478 11 5 11H9C9.26522 11 9.51957 11.1054 9.70711 11.2929C9.89464 11.4804 10 11.7348 10 12Z" fill="#F3F8F1"/>
</svg>
