<svg width="16" height="12" viewBox="0 0 16 12" fill="none" xmlns="http://www.w3.org/2000/svg">
<path d="M14.667 0.666992H1.33366C1.15685 0.666992 0.987279 0.73723 0.862254 0.862254C0.73723 0.987279 0.666992 1.15685 0.666992 1.33366V10.667C0.666992 10.8438 0.73723 11.0134 0.862254 11.1384C0.987279 11.2634 1.15685 11.3337 1.33366 11.3337H14.667C14.8438 11.3337 15.0134 11.2634 15.1384 11.1384C15.2634 11.0134 15.3337 10.8438 15.3337 10.667V1.33366C15.3337 1.15685 15.2634 0.987279 15.1384 0.862254C15.0134 0.73723 14.8438 0.666992 14.667 0.666992ZM14.0003 8.78966C13.7212 8.88872 13.4677 9.0488 13.2582 9.25823C13.0488 9.46767 12.8887 9.72119 12.7897 10.0003H3.21099C3.11193 9.72119 2.95185 9.46767 2.74242 9.25823C2.53298 9.0488 2.27946 8.88872 2.00033 8.78966V3.21099C2.27946 3.11193 2.53298 2.95185 2.74242 2.74242C2.95185 2.53298 3.11193 2.27946 3.21099 2.00033H12.7897C12.8887 2.27946 13.0488 2.53298 13.2582 2.74242C13.4677 2.95185 13.7212 3.11193 14.0003 3.21099V8.78966ZM8.00033 3.33366C7.47291 3.33366 6.95734 3.49006 6.51881 3.78307C6.08027 4.07609 5.73848 4.49257 5.53665 4.97984C5.33481 5.46711 5.282 6.00328 5.3849 6.52057C5.48779 7.03785 5.74177 7.513 6.11471 7.88594C6.48765 8.25888 6.9628 8.51286 7.48008 8.61575C7.99737 8.71865 8.53355 8.66584 9.02081 8.464C9.50808 8.26217 9.92456 7.92038 10.2176 7.48185C10.5106 7.04331 10.667 6.52774 10.667 6.00033C10.667 5.29308 10.386 4.6148 9.88594 4.11471C9.38585 3.61461 8.70757 3.33366 8.00033 3.33366ZM8.00033 7.33366C7.73662 7.33366 7.47883 7.25546 7.25956 7.10895C7.0403 6.96244 6.8694 6.7542 6.76849 6.51057C6.66757 6.26693 6.64116 5.99885 6.69261 5.7402C6.74406 5.48156 6.87105 5.24399 7.05752 5.05752C7.24399 4.87105 7.48156 4.74406 7.7402 4.69261C7.99885 4.64116 8.26693 4.66757 8.51057 4.76849C8.7542 4.8694 8.96244 5.0403 9.10895 5.25956C9.25546 5.47883 9.33366 5.73662 9.33366 6.00033C9.33366 6.35395 9.19318 6.69309 8.94313 6.94313C8.69309 7.19318 8.35395 7.33366 8.00033 7.33366ZM4.66699 6.00033C4.66699 6.17714 4.59675 6.34671 4.47173 6.47173C4.34671 6.59675 4.17714 6.66699 4.00033 6.66699H3.33366C3.15685 6.66699 2.98728 6.59675 2.86225 6.47173C2.73723 6.34671 2.66699 6.17714 2.66699 6.00033C2.66699 5.82351 2.73723 5.65394 2.86225 5.52892C2.98728 5.4039 3.15685 5.33366 3.33366 5.33366H4.00033C4.17714 5.33366 4.34671 5.4039 4.47173 5.52892C4.59675 5.65394 4.66699 5.82351 4.66699 6.00033ZM13.3337 6.00033C13.3337 6.17714 13.2634 6.34671 13.1384 6.47173C13.0134 6.59675 12.8438 6.66699 12.667 6.66699H12.0003C11.8235 6.66699 11.6539 6.59675 11.5289 6.47173C11.4039 6.34671 11.3337 6.17714 11.3337 6.00033C11.3337 5.82351 11.4039 5.65394 11.5289 5.52892C11.6539 5.4039 11.8235 5.33366 12.0003 5.33366H12.667C12.8438 5.33366 13.0134 5.4039 13.1384 5.52892C13.2634 5.65394 13.3337 5.82351 13.3337 6.00033Z" fill="#F3F8F1"/>
</svg>
