<svg width="16" height="16" viewBox="0 0 16 16" fill="none" xmlns="http://www.w3.org/2000/svg">
<path d="M8.00033 0.666992C6.54993 0.666992 5.13211 1.09708 3.92615 1.90288C2.72019 2.70868 1.78025 3.85399 1.22521 5.19398C0.67017 6.53397 0.524945 8.00846 0.807903 9.43099C1.09086 10.8535 1.78929 12.1602 2.81488 13.1858C3.84046 14.2114 5.14714 14.9098 6.56967 15.1927C7.99219 15.4757 9.46668 15.3305 10.8067 14.7754C12.1467 14.2204 13.292 13.2805 14.0978 12.0745C14.9036 10.8685 15.3337 9.45072 15.3337 8.00033C15.3314 6.05611 14.558 4.19218 13.1832 2.81741C11.8085 1.44264 9.94455 0.669286 8.00033 0.666992ZM8.00033 14.0003C6.81364 14.0003 5.6536 13.6484 4.66691 12.9891C3.68021 12.3299 2.91118 11.3928 2.45705 10.2964C2.00293 9.20007 1.88411 7.99367 2.11562 6.82978C2.34713 5.6659 2.91857 4.5968 3.75769 3.75768C4.5968 2.91857 5.6659 2.34712 6.82979 2.11561C7.99367 1.8841 9.20007 2.00292 10.2964 2.45705C11.3928 2.91117 12.3299 3.68021 12.9891 4.6669C13.6484 5.6536 14.0003 6.81364 14.0003 8.00033C13.9986 9.59108 13.3659 11.1162 12.241 12.241C11.1162 13.3659 9.59109 13.9986 8.00033 14.0003ZM12.0003 8.00033C12.0003 8.17714 11.9301 8.34671 11.8051 8.47173C11.68 8.59675 11.5105 8.66699 11.3337 8.66699H8.00033C7.82352 8.66699 7.65395 8.59675 7.52892 8.47173C7.4039 8.34671 7.33366 8.17714 7.33366 8.00033V4.00033C7.33366 3.82351 7.4039 3.65395 7.52892 3.52892C7.65395 3.4039 7.82352 3.33366 8.00033 3.33366C8.17714 3.33366 8.34671 3.4039 8.47173 3.52892C8.59676 3.65395 8.667 3.82351 8.667 4.00033V7.33366H11.3337C11.5105 7.33366 11.68 7.4039 11.8051 7.52892C11.9301 7.65394 12.0003 7.82351 12.0003 8.00033Z" fill="#F3F8F1"/>
</svg>
