<svg width="16" height="16" viewBox="0 0 16 16" fill="none" xmlns="http://www.w3.org/2000/svg">
<path d="M8.00033 0.666992C6.54993 0.666992 5.13211 1.09708 3.92615 1.90288C2.72019 2.70868 1.78025 3.85399 1.22521 5.19398C0.67017 6.53397 0.524945 8.00846 0.807903 9.43099C1.09086 10.8535 1.78929 12.1602 2.81488 13.1858C3.84046 14.2114 5.14714 14.9098 6.56967 15.1927C7.99219 15.4757 9.46668 15.3305 10.8067 14.7754C12.1467 14.2204 13.292 13.2805 14.0978 12.0745C14.9036 10.8685 15.3337 9.45072 15.3337 8.00033C15.3314 6.05611 14.558 4.19218 13.1832 2.81741C11.8085 1.44264 9.94455 0.669286 8.00033 0.666992ZM8.00033 14.0003C6.81364 14.0003 5.6536 13.6484 4.66691 12.9891C3.68021 12.3299 2.91118 11.3928 2.45705 10.2964C2.00293 9.20007 1.88411 7.99367 2.11562 6.82978C2.34713 5.6659 2.91857 4.5968 3.75769 3.75768C4.5968 2.91857 5.6659 2.34712 6.82979 2.11561C7.99367 1.8841 9.20007 2.00292 10.2964 2.45705C11.3928 2.91117 12.3299 3.68021 12.9891 4.6669C13.6484 5.6536 14.0003 6.81364 14.0003 8.00033C13.9984 9.59103 13.3656 11.116 12.2408 12.2408C11.116 13.3656 9.59103 13.9984 8.00033 14.0003ZM11.825 5.88299C11.8842 5.94751 11.9301 6.02306 11.9601 6.10532C11.9901 6.18758 12.0036 6.27494 11.9998 6.36241C11.996 6.44989 11.975 6.53576 11.9381 6.61513C11.9011 6.6945 11.8489 6.76581 11.7843 6.82499L7.78433 10.4917C7.65769 10.6078 7.4911 10.6705 7.31931 10.6668C7.14753 10.6631 6.98382 10.5932 6.86233 10.4717L4.86233 8.47166C4.73732 8.34656 4.66713 8.17694 4.66719 8.00009C4.66726 7.82324 4.73757 7.65366 4.86266 7.52866C4.98776 7.40365 5.15738 7.33346 5.33423 7.33352C5.51108 7.33359 5.68066 7.4039 5.80566 7.52899L7.35433 9.07766L10.8837 5.84232C11.0139 5.72299 11.1862 5.66025 11.3627 5.66788C11.5392 5.6755 11.7055 5.75287 11.825 5.88299Z" fill="#F3F8F1"/>
</svg>
