<svg width="12" height="16" viewBox="0 0 12 16" fill="none" xmlns="http://www.w3.org/2000/svg">
<path d="M11.3333 2.00033C11.5101 2.00033 11.6797 1.93009 11.8047 1.80506C11.9298 1.68004 12 1.51047 12 1.33366C12 1.15685 11.9298 0.987279 11.8047 0.862254C11.6797 0.73723 11.5101 0.666992 11.3333 0.666992H0.666667C0.489856 0.666992 0.320286 0.73723 0.195262 0.862254C0.0702379 0.987279 0 1.15685 0 1.33366C0 1.51047 0.0702379 1.68004 0.195262 1.80506C0.320286 1.93009 0.489856 2.00033 0.666667 2.00033H1.366C1.46333 3.22433 1.86133 5.83366 3.49533 7.33366C1.772 9.00766 1.42133 12.4897 1.35133 14.0003H0.666667C0.489856 14.0003 0.320286 14.0706 0.195262 14.1956C0.0702379 14.3206 0 14.4902 0 14.667C0 14.8438 0.0702379 15.0134 0.195262 15.1384C0.320286 15.2634 0.489856 15.3337 0.666667 15.3337H11.3333C11.5101 15.3337 11.6797 15.2634 11.8047 15.1384C11.9298 15.0134 12 14.8438 12 14.667C12 14.4902 11.9298 14.3206 11.8047 14.1956C11.6797 14.0706 11.5101 14.0003 11.3333 14.0003H10.6487C10.5787 12.491 10.228 9.00899 8.50467 7.33366C10.1387 5.83232 10.5367 3.22299 10.634 2.00033H11.3333ZM7.05333 6.75099C6.94742 6.80981 6.85954 6.89638 6.79913 7.00139C6.73872 7.1064 6.70807 7.22589 6.71047 7.34701C6.71287 7.46814 6.74823 7.58632 6.81275 7.68886C6.87727 7.79139 6.96851 7.87441 7.07667 7.92899C8.70133 8.74766 9.21 12.1363 9.31333 14.0003H2.68667C2.78733 12.1337 3.29867 8.74766 4.92333 7.92899C5.03149 7.87441 5.12273 7.79139 5.18725 7.68886C5.25177 7.58632 5.28713 7.46814 5.28953 7.34701C5.29193 7.22589 5.26128 7.1064 5.20087 7.00139C5.14046 6.89638 5.05258 6.80981 4.94667 6.75099C3.254 5.81166 2.818 3.22966 2.70533 2.00033H9.29467C9.182 3.22966 8.746 5.81166 7.05333 6.75099ZM6 8.66699C6 8.66699 8 10.267 8 11.067V13.3337H4V11.067C4 10.267 6 8.66699 6 8.66699Z" fill="#F3F8F1"/>
</svg>
