<svg width="16" height="16" viewBox="0 0 16 16" fill="none" xmlns="http://www.w3.org/2000/svg">
<path d="M8.00033 15.3337C9.45072 15.3337 10.8685 14.9036 12.0745 14.0978C13.2805 13.292 14.2204 12.1467 14.7754 10.8067C15.3305 9.46668 15.4757 7.99219 15.1927 6.56967C14.9098 5.14714 14.2114 3.84046 13.1858 2.81488C12.1602 1.78929 10.8535 1.09086 9.43099 0.807903C8.00846 0.524945 6.53397 0.67017 5.19398 1.22521C3.85399 1.78025 2.70868 2.72019 1.90288 3.92615C1.09708 5.13211 0.666992 6.54993 0.666992 8.00033C0.669286 9.94455 1.44264 11.8085 2.81741 13.1832C4.19218 14.558 6.05611 15.3314 8.00033 15.3337ZM8.00033 2.00033C9.18701 2.00033 10.3471 2.35222 11.3337 3.01151C12.3204 3.6708 13.0895 4.60787 13.5436 5.70423C13.9977 6.80058 14.1165 8.00698 13.885 9.17087C13.6535 10.3348 13.0821 11.4039 12.243 12.243C11.4038 13.0821 10.3348 13.6535 9.17087 13.885C8.00698 14.1166 6.80058 13.9977 5.70422 13.5436C4.60787 13.0895 3.6708 12.3204 3.01151 11.3338C2.35222 10.3471 2.00033 9.18702 2.00033 8.00033C2.00209 6.40957 2.6348 4.88447 3.75963 3.75964C4.88447 2.6348 6.40957 2.00209 8.00033 2.00033ZM5.52899 9.529L7.05766 8.00033L5.52899 6.47166C5.40755 6.34593 5.34036 6.17753 5.34188 6.00273C5.3434 5.82793 5.41351 5.66072 5.53711 5.53712C5.66072 5.41351 5.82793 5.3434 6.00272 5.34188C6.17752 5.34036 6.34592 5.40756 6.47166 5.529L8.00033 7.05766L9.52899 5.529C9.65473 5.40756 9.82313 5.34036 9.99793 5.34188C10.1727 5.3434 10.3399 5.41351 10.4635 5.53712C10.5871 5.66072 10.6573 5.82793 10.6588 6.00273C10.6603 6.17753 10.5931 6.34593 10.4717 6.47166L8.94299 8.00033L10.4717 9.529C10.5353 9.59049 10.5861 9.66406 10.6211 9.74539C10.656 9.82673 10.6744 9.91421 10.6752 10.0027C10.6759 10.0912 10.6591 10.179 10.6255 10.261C10.592 10.3429 10.5425 10.4173 10.4799 10.4799C10.4173 10.5425 10.3429 10.592 10.261 10.6255C10.179 10.6591 10.0912 10.6759 10.0027 10.6752C9.9142 10.6744 9.82673 10.656 9.74539 10.6211C9.66405 10.5861 9.59049 10.5353 9.52899 10.4717L8.00033 8.943L6.47166 10.4717C6.34592 10.5931 6.17752 10.6603 6.00272 10.6588C5.82793 10.6573 5.66072 10.5871 5.53711 10.4635C5.41351 10.3399 5.3434 10.1727 5.34188 9.99793C5.34036 9.82313 5.40755 9.65473 5.52899 9.529Z" fill="#F3F8F1"/>
</svg>
