<svg width="18" height="23" viewBox="0 0 18 23" fill="none" xmlns="http://www.w3.org/2000/svg">
<path d="M17.9922 9.97988C17.9953 8.79916 17.7659 7.62939 17.317 6.53734C16.868 5.4453 16.2084 4.45237 15.3757 3.61525C13.6941 1.92461 11.4097 0.971241 9.02517 0.964876C6.64061 0.958511 4.35119 1.89967 2.66054 3.58131C0.969904 5.26295 0.0165363 7.54731 0.0101711 9.93188C-0.010946 12.7021 0.793229 15.4159 2.32021 17.7274C3.84718 20.0389 6.02781 21.8433 8.58417 22.9109C8.71485 22.97 8.85673 23.0004 9.00017 22.9999C9.14466 23.0001 9.28753 22.9694 9.41917 22.9099C11.9677 21.8456 14.143 20.0486 15.6692 17.7468C17.1954 15.4449 18.0039 12.7417 17.9922 9.97988ZM9.00017 20.8999C6.89211 19.9718 5.10447 18.4427 3.86084 16.504C2.61721 14.5653 1.97279 12.3029 2.00817 9.99988C2.00817 9.08167 2.18902 8.17246 2.54041 7.32415C2.89179 6.47584 3.40681 5.70505 4.05608 5.05579C4.70535 4.40652 5.47614 3.89149 6.32445 3.54011C7.17276 3.18873 8.08197 3.00788 9.00017 3.00788C9.91837 3.00788 10.8276 3.18873 11.6759 3.54011C12.5242 3.89149 13.295 4.40652 13.9443 5.05579C14.5935 5.70505 15.1086 6.47584 15.4599 7.32415C15.8113 8.17246 15.9922 9.08167 15.9922 9.99988C15.9922 10.0209 15.9922 10.0449 15.9922 10.0649C16.0164 12.3573 15.3667 14.6063 14.1236 16.5326C12.8805 18.4589 11.099 19.9775 9.00017 20.8999ZM11.0002 9.99988C11.0002 10.3954 10.8829 10.7821 10.6631 11.111C10.4433 11.4399 10.131 11.6963 9.76554 11.8476C9.40009 11.999 8.99795 12.0386 8.60999 11.9614C8.22203 11.8843 7.86566 11.6938 7.58596 11.4141C7.30625 11.1344 7.11577 10.778 7.0386 10.3901C6.96143 10.0021 7.00104 9.59996 7.15241 9.23451C7.30379 8.86906 7.56013 8.5567 7.88903 8.33694C8.21793 8.11717 8.60461 7.99988 9.00017 7.99988C9.5306 7.99988 10.0393 8.21059 10.4144 8.58566C10.7895 8.96074 11.0002 9.46944 11.0002 9.99988Z" fill="#F3F8F1"/>
</svg>
