<svg width="22" height="22" viewBox="0 0 22 22" fill="none" xmlns="http://www.w3.org/2000/svg">
<path d="M18.73 15.663C19.2249 15.0504 19.4964 14.2875 19.5 13.5C19.5 12.5717 19.1313 11.6815 18.4749 11.0251C17.8185 10.3687 16.9283 10 16 10C15.0717 10 14.1815 10.3687 13.5251 11.0251C12.8687 11.6815 12.5 12.5717 12.5 13.5C12.5036 14.2875 12.7751 15.0504 13.27 15.663C12.3527 16.1338 11.5713 16.8317 11 17.69C10.4287 16.8317 9.64727 16.1338 8.73 15.663C9.22488 15.0504 9.49645 14.2875 9.5 13.5C9.5 12.5717 9.13125 11.6815 8.47487 11.0251C7.8185 10.3687 6.92826 10 6 10C5.07174 10 4.1815 10.3687 3.52513 11.0251C2.86875 11.6815 2.5 12.5717 2.5 13.5C2.50355 14.2875 2.77512 15.0504 3.27 15.663C2.28657 16.1655 1.4609 16.9296 0.883935 17.8713C0.30697 18.813 0.00109519 19.8956 0 21C0 21.2652 0.105357 21.5196 0.292893 21.7071C0.48043 21.8946 0.734784 22 1 22H21C21.2652 22 21.5196 21.8946 21.7071 21.7071C21.8946 21.5196 22 21.2652 22 21C21.9989 19.8956 21.693 18.813 21.1161 17.8713C20.5391 16.9296 19.7134 16.1655 18.73 15.663ZM6 12C6.29667 12 6.58668 12.088 6.83336 12.2528C7.08003 12.4176 7.27229 12.6519 7.38582 12.926C7.49935 13.2001 7.52906 13.5017 7.47118 13.7926C7.4133 14.0836 7.27044 14.3509 7.06066 14.5607C6.85088 14.7704 6.58361 14.9133 6.29264 14.9712C6.00166 15.0291 5.70006 14.9994 5.42597 14.8858C5.15189 14.7723 4.91762 14.58 4.7528 14.3334C4.58797 14.0867 4.5 13.7967 4.5 13.5C4.5 13.1022 4.65804 12.7206 4.93934 12.4393C5.22064 12.158 5.60218 12 6 12ZM2.126 20C2.34699 19.1405 2.84756 18.3789 3.5489 17.835C4.25024 17.2912 5.11252 16.9961 6 16.9961C6.88748 16.9961 7.74976 17.2912 8.4511 17.835C9.15244 18.3789 9.653 19.1405 9.874 20H2.126ZM16 12C16.2967 12 16.5867 12.088 16.8334 12.2528C17.08 12.4176 17.2723 12.6519 17.3858 12.926C17.4993 13.2001 17.5291 13.5017 17.4712 13.7926C17.4133 14.0836 17.2704 14.3509 17.0607 14.5607C16.8509 14.7704 16.5836 14.9133 16.2926 14.9712C16.0017 15.0291 15.7001 14.9994 15.426 14.8858C15.1519 14.7723 14.9176 14.58 14.7528 14.3334C14.588 14.0867 14.5 13.7967 14.5 13.5C14.5 13.1022 14.658 12.7206 14.9393 12.4393C15.2206 12.158 15.6022 12 16 12ZM12.126 20C12.347 19.1405 12.8476 18.3789 13.5489 17.835C14.2502 17.2912 15.1125 16.9961 16 16.9961C16.8875 16.9961 17.7498 17.2912 18.4511 17.835C19.1524 18.3789 19.653 19.1405 19.874 20H12.126ZM5 1V7C5 7.26522 5.10536 7.51957 5.29289 7.70711C5.48043 7.89464 5.73478 8 6 8H8.865L10.232 9.641C10.3259 9.75354 10.4433 9.84408 10.576 9.90621C10.7087 9.96834 10.8535 10.0006 11 10.0006C11.1465 10.0006 11.2913 9.96834 11.424 9.90621C11.5567 9.84408 11.6741 9.75354 11.768 9.641L13.135 8H16C16.2652 8 16.5196 7.89464 16.7071 7.70711C16.8946 7.51957 17 7.26522 17 7V1C17 0.734784 16.8946 0.48043 16.7071 0.292893C16.5196 0.105357 16.2652 0 16 0H6C5.73478 0 5.48043 0.105357 5.29289 0.292893C5.10536 0.48043 5 0.734784 5 1ZM7 2H15V6H12.667C12.5203 5.99979 12.3754 6.03184 12.2425 6.09388C12.1096 6.15592 11.992 6.24643 11.898 6.359L11 7.438L10.1 6.359C10.0062 6.24669 9.88891 6.15633 9.75638 6.0943C9.62385 6.03227 9.47933 6.00008 9.333 6H7V2Z" fill="#F3F8F1"/>
</svg>
