<svg width="22" height="18" viewBox="0 0 22 18" fill="none" xmlns="http://www.w3.org/2000/svg">
<path d="M15.03 15.616L20.324 10.7631C20.4208 10.6743 20.5341 10.6054 20.6575 10.5605C20.7809 10.5155 20.9119 10.4952 21.0431 10.5009C21.1743 10.5066 21.3032 10.538 21.4222 10.5935C21.5413 10.6489 21.6482 10.7273 21.737 10.8241C21.8258 10.9208 21.8946 11.0342 21.9396 11.1575C21.9846 11.2809 22.0048 11.412 21.9991 11.5432C21.9935 11.6744 21.962 11.8032 21.9066 11.9223C21.8511 12.0413 21.7728 12.1483 21.676 12.2371L15.676 17.7371C15.486 17.9112 15.2362 18.0054 14.9785 17.9998C14.7208 17.9942 14.4752 17.8893 14.293 17.7071L11.293 14.7071C11.1108 14.5184 11.01 14.2658 11.0123 14.0036C11.0146 13.7415 11.1198 13.4906 11.3052 13.3052C11.4906 13.1198 11.7414 13.0147 12.0036 13.0124C12.2658 13.0101 12.5184 13.1109 12.707 13.293L15.03 15.616ZM0 17.0001C0.00241635 15.2089 0.538645 13.4591 1.54021 11.9741C2.54177 10.4891 3.96321 9.33638 5.623 8.66305C4.77385 7.87171 4.22772 6.80866 4.07895 5.65751C3.93017 4.50636 4.1881 3.3394 4.80817 2.35818C5.42824 1.37696 6.37152 0.643103 7.47509 0.283358C8.57866 -0.076388 9.77321 -0.0394305 10.8524 0.387847C11.9317 0.815124 12.8278 1.60589 13.386 2.62356C13.9442 3.64124 14.1295 4.82191 13.9099 5.96167C13.6902 7.10142 13.0794 8.12867 12.183 8.866C11.2865 9.60334 10.1607 10.0044 9 10.0001C7.31724 10.0021 5.69136 10.6094 4.41925 11.711C3.14714 12.8125 2.31366 14.3349 2.071 16.0001H9C9.26522 16.0001 9.51957 16.1054 9.70711 16.2929C9.89464 16.4805 10 16.7348 10 17.0001C10 17.2653 9.89464 17.5196 9.70711 17.7072C9.51957 17.8947 9.26522 18.0001 9 18.0001H1C0.734784 18.0001 0.48043 17.8947 0.292893 17.7072C0.105357 17.5196 0 17.2653 0 17.0001ZM6 5.00005C6 5.59339 6.17595 6.17341 6.50559 6.66676C6.83524 7.16011 7.30377 7.54463 7.85195 7.77169C8.40013 7.99875 9.00333 8.05816 9.58527 7.94241C10.1672 7.82665 10.7018 7.54093 11.1213 7.12137C11.5409 6.70181 11.8266 6.16726 11.9424 5.58532C12.0581 5.00338 11.9987 4.40018 11.7716 3.852C11.5446 3.30382 11.1601 2.83529 10.6667 2.50564C10.1734 2.176 9.59334 2.00005 9 2.00005C8.20435 2.00005 7.44129 2.31612 6.87868 2.87873C6.31607 3.44134 6 4.2044 6 5.00005Z" fill="#F3F8F1"/>
</svg>
